{"title":"Loudspeaker 2009 Malayalam DVDRip SanV","uid":5507840,"size":729322178,"categoryP":"video","categoryS":"movies","magnet":"?xt=urn:btih:6edeef2b097ee66c4b9fccc4c907ae1a8f45858f&amp;dn=Loudspeaker+2009+Malayalam+DVDRip+SanV&amp;tr=udp%3A%2F%2Ftracker.openbittorrent.com%3A80&amp;tr=udp%3A%2F%2Fopen.demonii.com%3A1337&amp;tr=udp%3A%2F%2Ftracker.coppersurfer.tk%3A6969&amp;tr=udp%3A%2F%2Fexodus.desync.com%3A6969","seeders":2,"leechers":1,"uploader":"tkshyam","files":1,"time":1271904548,"description":"LoudSpeaker DVD Rip\n\nStarring Mammootty, Sasikumar, Gracy Singh etc.\n\n\nseeding time 2:00am - 8:00am\n\n\n\nVideo\nID                               : 0\nFormat                           : MPEG-4 Visual\nFormat settings, BVOP            : Yes\nFormat settings, QPel            : No\nFormat settings, GMC             : No warppoints\nFormat settings, Matrix          : Default (H.263)\nCodec ID                         : XVID\nCodec ID/Hint                    : XviD\nDuration                         : 2h 0mn\nBit rate                         : 662 Kbps\nWidth                            : 640 pixels\nHeight                           : 272 pixels\nDisplay aspect ratio             : 2.35:1\nFrame rate                       : 29.970 fps\nResolution                       : 24 bits\nScan type                        : Progressive\nBits/(Pixel*Frame)               : 0.127\nStream size                      : 573 MiB (82%)\n\nAudio\nID                               : 1\nFormat                           : MPEG Audio\nFormat version                   : Version 1\nFormat profile                   : Layer 3\nCodec ID                         : 55\nCodec ID/Hint                    : MP3\nDuration                         : 2h 0mn\nBit rate mode                    : Constant\nBit rate                         : 128 Kbps\nChannel(s)                       : 2 channels\nSampling rate                    : 48.0 KHz\nResolution                       : 16 bits\nStream size                      : 111 MiB (16%)","torrent":{"xt":"urn:btih:6edeef2b097ee66c4b9fccc4c907ae1a8f45858f","amp;dn":"Loudspeaker+2009+Malayalam+DVDRip+SanV","amp;tr":["udp%3A%2F%2Ftracker.openbittorrent.com%3A80","udp%3A%2F%2Fopen.demonii.com%3A1337","udp%3A%2F%2Ftracker.coppersurfer.tk%3A6969","udp%3A%2F%2Fexodus.desync.com%3A6969"],"infoHash":"6edeef2b097ee66c4b9fccc4c907ae1a8f45858f","infoHashBuffer":{"type":"Buffer","data":[110,222,239,43,9,126,230,108,75,159,204,196,201,7,174,26,143,69,133,143]},"announce":[],"urlList":[]}}